<?xml version="1.0" encoding="utf-8"?>
<!-- Generator: Adobe Illustrator 22.1.0, SVG Export Plug-In . SVG Version: 6.00 Build 0)  -->
<svg version="1.1" id="Capa_1" xmlns="http://www.w3.org/2000/svg" xmlns:xlink="http://www.w3.org/1999/xlink" x="0px" y="0px"
	 viewBox="0 0 745.6 745.6" style="enable-background:new 0 0 745.6 745.6;" xml:space="preserve">
<style type="text/css">
	.st0{fill:#FEFEFE;}
	.st1{fill:#5F7758;}
</style>
<circle class="st0" cx="372.8" cy="372.8" r="372.8"/>
<path class="st0" d="M487.1,292.9c44.3-4.3,77.6,22.6,87.9,67.1c6.9,29.8,3.2,58.9-6.8,87.4c-11,31.6-28.7,58.8-53.8,81
	c-1.5,1.3-3,4.2-5.3,2.5c-2.3-1.6-0.8-4.2,0.1-6.3c16.7-36.8-3.6-77.8-42.9-86.8c-33.4-7.6-67.1,14.3-74,48.3
	c-6.9,33.7,16,67.3,49.6,73.2c2.7,0.5,7.5-0.8,7.8,2.6c0.3,3.8-4.6,3.3-7.4,4.3c-6.2,2.5-12.9,3.1-19.5,3.8
	c-25.2,2.8-50.5,3-75.8,1.3c-47.5-3.2-94.6-9.7-140.8-21.5c-14.7-3.8-29.2-7.7-43.2-13.7c-4.7-2-9.4-4.1-13.8-7.7
	c17.3-8.8,24.8-25,32.2-41.4c11.8-26.1,20.5-53.1,24.1-81.5c2.9-22.3,5.9-44.5,10.3-66.6c5.7-29,17-55,38.8-75.5
	c30.2-28.4,66.3-41.5,107.5-39.4c42.7,2.2,77.9,19.8,104.7,53.4c0.3,0.3,0.7,0.6,1.5,1.3c4-13,7.8-25.6,11.7-38.3
	c6.4-21.2,12.9-42.3,19.2-63.5c1-3.4,1.8-4.9,5.6-2.5c15.6,9.9,31.3,19.7,47.1,29.2c3.6,2.2,3,3.8,0.8,6.4
	c-21.6,26.8-43.2,53.7-64.7,80.6C487.7,291.1,487.6,291.8,487.1,292.9z"/>
<path class="st1" d="M372.7,715.9C186.5,716,34.2,564,34.1,378.2c0-188,151.4-339.9,338.9-339.8c186.7,0,338.4,151.9,338.4,338.7
	C711.5,564.2,559.9,715.7,372.7,715.9z M487.1,292.9c0.5-1.1,0.6-1.8,1-2.3c21.6-26.9,43.1-53.8,64.7-80.6c2.1-2.7,2.8-4.2-0.8-6.4
	c-15.8-9.5-31.5-19.3-47.1-29.2c-3.7-2.4-4.6-0.9-5.6,2.5c-6.3,21.2-12.8,42.4-19.2,63.5c-3.8,12.6-7.7,25.3-11.7,38.3
	c-0.8-0.7-1.2-0.9-1.5-1.3c-26.8-33.7-62-51.3-104.7-53.4c-41.3-2.1-77.3,11-107.5,39.4c-21.8,20.6-33,46.6-38.8,75.5
	c-4.4,22.1-7.4,44.3-10.3,66.6c-3.7,28.4-12.3,55.4-24.1,81.5c-7.4,16.4-14.9,32.5-32.2,41.4c4.4,3.6,9.1,5.7,13.8,7.7
	c14,5.9,28.5,9.9,43.2,13.7c46.3,11.8,93.3,18.3,140.8,21.5c25.3,1.7,50.6,1.5,75.8-1.3c6.6-0.7,13.3-1.4,19.5-3.8
	c2.7-1.1,7.7-0.5,7.4-4.3c-0.3-3.3-5-2.1-7.8-2.6c-33.6-5.9-56.5-39.5-49.6-73.2c6.9-34,40.6-55.9,74-48.3c39.3,9,59.6,50,42.9,86.8
	c-1,2.1-2.4,4.7-0.1,6.3c2.3,1.7,3.8-1.2,5.3-2.5c25.1-22.3,42.8-49.4,53.8-81c10-28.5,13.6-57.7,6.8-87.4
	C564.7,315.4,531.4,288.6,487.1,292.9z"/>
</svg>
